<svg xmlns="http://www.w3.org/2000/svg" viewBox="0 0 200 200"><title>Icon New Maret 2021</title><circle cx="100" cy="100" r="95.7807" style="fill:#df1995"/><path d="M76.7264,151.2975a5.3219,5.3219,0,0,1,4.3459-5.4008,5.6546,5.6546,0,0,0,2.1669-.6238c1.1724-.7855,1.3239-1.8053.34-2.8027-2.46-2.4934-4.9462-4.96-7.4023-7.4574-.8686-.8831-.8117-1.0385.26-1.6159a3.39,3.39,0,0,0,.7316-.6163q3.4767-3.4653,6.9444-6.9394a2.7073,2.7073,0,0,1,4.2387.2113,4.7671,4.7671,0,0,1,1.0585,2.5537,4.2808,4.2808,0,0,0,4.3428,3.9606,4.96,4.96,0,0,0,4.739-4.1461c.2907-2.8784-1.2546-4.7339-4.153-5.0848a3.79,3.79,0,0,1-3.1884-2.2983,2.3268,2.3268,0,0,1,.5515-2.7825q3.8117-3.8119,7.6225-7.6247c.9266-.9266,1.0065-.9214,1.9552.0274q11.094,11.0952,22.19,22.1877c1.0235,1.0232,1.0393,1.04.0011,2.0792q-11.4268,11.4431-22.8659,22.8738c-.7246.7241-1,.6922-1.7336-.0481q-3.6972-3.7325-7.4092-7.45a1.5834,1.5834,0,0,0-2.6177.14,3.4635,3.4635,0,0,0-.7089,1.76c-.473,2.9805-2.39,4.8849-5.0008,5.0035a5.9946,5.9946,0,0,1-6.2685-4.5412A5.8687,5.8687,0,0,1,76.7264,151.2975Z" style="fill:#fff"/><path d="M151.4133,123.55a5.3577,5.3577,0,0,1-5.5491-4.9246,3.6246,3.6246,0,0,0-.6168-1.7066,1.62,1.62,0,0,0-2.7237-.2656c-2.451,2.4248-4.88,4.8721-7.3208,7.307-1.003,1-.9209.926-1.8164-.1694-.9387-1.1483-2.0623-2.1461-3.1108-3.2039-1.6036-1.6179-3.22-3.2233-4.8154-4.8489-.8318-.8476-.6007-2.5947.4706-3.6286a4.5773,4.5773,0,0,1,2.6582-1.2308,4.2761,4.2761,0,0,0,4.044-4.2659,4.94,4.94,0,0,0-4.0628-4.8134,4.2452,4.2452,0,0,0-5.13,3.9666,3.7464,3.7464,0,0,1-3.624,3.57,1.8107,1.8107,0,0,1-1.33-.55q-4.0141-4.039-8.047-8.0595c-.5725-.568-.5083-1.01.0322-1.5487q11.358-11.3256,22.6934-22.674c.52-.5205.9171-.5671,1.4627-.02Q146.2637,88.1527,157.9323,99.79c.5417.54.5288.9314-.0033,1.4568-2.4323,2.4022-4.8334,4.8359-7.2643,7.2394-.5793.5728-1.1727,1.1133-.8392,2.0266a2.5382,2.5382,0,0,0,1.9868,1.5446c.5659.1386,1.162.173,1.7122.3531a5.3717,5.3717,0,0,1,3.7742,4.973,6.0816,6.0816,0,0,1-3.71,5.7481A5.0338,5.0338,0,0,1,151.4133,123.55Z" style="fill:#fff"/><path d="M48.6794,76.3765A5.3387,5.3387,0,0,1,54.1952,81.29a3.5052,3.5052,0,0,0,.7191,1.8463,1.5867,1.5867,0,0,0,2.6141.1556q3.728-3.71,7.443-7.4329c.8847-.8818.8735-.7789,1.6311.1925A35.9231,35.9231,0,0,0,69.565,79.15c1.5855,1.5949,3.16,3.2021,4.79,4.7506a2.29,2.29,0,0,1,.5322,2.7216,3.8834,3.8834,0,0,1-3.3915,2.4153,4.2446,4.2446,0,0,0-3.9321,3.3023,4.8253,4.8253,0,0,0,2.1938,5.1325,4.676,4.676,0,0,0,5.2679-.1882,4.08,4.08,0,0,0,1.5873-3.0066,4.3344,4.3344,0,0,1,1.5709-3.0287,2.6147,2.6147,0,0,1,3.6244.1245q3.879,3.8645,7.73,7.7568c.7213.7276.7161.9413-.0011,1.6582q-11.3136,11.3088-22.6251,22.62c-.566.5671-.9666.55-1.5255-.01Q53.8136,111.7879,42.215,100.2043c-.7391-.74-.7342-.8588.0342-1.6285q3.6847-3.6913,7.377-7.375a1.6774,1.6774,0,0,0-.3219-2.886,3.994,3.994,0,0,0-1.7283-.577,5.1743,5.1743,0,0,1-4.6068-3.9762,5.6051,5.6051,0,0,1,1.8077-5.8759A5.2569,5.2569,0,0,1,48.6794,76.3765Z" style="fill:#fff"/><path d="M123.31,48.7763a5.28,5.28,0,0,1-4.3383,5.2947,5.345,5.345,0,0,0-2.3058.7385,1.5649,1.5649,0,0,0-.2684,2.6286c2.48,2.5133,4.9855,5.002,7.461,7.52.8724.8874.8166,1.0363-.2567,1.6159a3.4,3.4,0,0,0-.7313.617q-3.5087,3.4965-7.0085,7.0018a2.6626,2.6626,0,0,1-4.1117-.2212,4.8073,4.8073,0,0,1-1.1183-2.53,4.1753,4.1753,0,0,0-3.5741-3.9561A4.9219,4.9219,0,0,0,102.1,69.914a4.3847,4.3847,0,0,0,3.5336,6.7036,3.6386,3.6386,0,0,1,3.4646,3.614,1.6974,1.6974,0,0,1-.5137,1.2521q-4.0414,4.0176-8.0595,8.0585c-.5937.6-1.02.5421-1.6007-.04Q87.6258,78.1729,76.2879,66.8836c-.5558-.5537-.5928-.983-.0261-1.5412q4.089-4.0278,8.1459-8.0881,3.8089-3.8055,7.5973-7.6318,3.7692-3.7836,7.54-7.5656a.9045.9045,0,0,1,1.4933.0271c2.4779,2.5157,4.9764,5.0111,7.4542,7.5269a1.64,1.64,0,0,0,2.7463-.1333,3.6619,3.6619,0,0,0,.694-1.7729c.547-3.3315,2.8422-5.1823,6.1011-4.9268A5.9738,5.9738,0,0,1,123.31,48.7763Z" style="fill:#fff"/></svg>