<svg xmlns="http://www.w3.org/2000/svg" viewBox="0 0 200 200"><title>Icon New Maret 2021</title><circle cx="100" cy="100" r="93.8071" style="fill:#00aed6"/><path d="M46.303,84.4692h9.8864a2.0791,2.0791,0,0,0,.3269.0565c3.7941.0593,7.5772.3357,11.364.5467a4.3877,4.3877,0,0,1,2.9283,1.2659,8.6938,8.6938,0,0,1,2.6185,5.6772c.3434,4.039.44,8.0928.462,12.1457.0294,5.4238.0467,10.848-.1075,16.2708-.0815,2.8674-.1412,5.7358-.2607,8.6016-.1464,3.5118-.3093,7.0236-.5341,10.531a8.7578,8.7578,0,0,1-2.61,6.02,4.124,4.124,0,0,1-2.8922,1.2264c-.4443.0037-.8891.0057-1.3325.03-4.5463.2465-9.0945.4244-13.6486.4372-4.4058.0124-8.81-.03-13.2129-.2106a4.2982,4.2982,0,0,1-2.7154-.9508,8.5545,8.5545,0,0,1-2.9468-6.2509c-.2062-2.9338-.3342-5.8741-.4419-8.8136-.1729-4.7161-.3522-9.4325-.3735-14.1529-.0013-.2942-.0406-.5883-.0622-.8824V101.7982a5.1983,5.1983,0,0,0,.061-.5479c.0264-3.03.16-6.0567.34-9.0813a9.4064,9.4064,0,0,1,2.1605-5.5314,4.52,4.52,0,0,1,3.4106-1.8226c1.2-.0459,2.3985-.1116,3.5977-.1666Q44.3121,84.5572,46.303,84.4692Zm7.5036,58.5138a3.2526,3.2526,0,0,0,3.0029-2.9452,2.5949,2.5949,0,0,0-1.329-2.3519,3.685,3.685,0,0,0-4.0655.3224,2.607,2.607,0,0,0-.388,3.8332A3.4113,3.4113,0,0,0,53.8066,142.983Z" style="fill:#f2f2f2"/><path d="M166.9941,87.7577c-.1779-6.2936-.5539-12.5764-.9689-18.8579a24.9251,24.9251,0,0,0-.963-6.0333c-1.3747-3.76-1.8747-7.447-12.7942-8.4972-5.0116-.482-10.0549-.5523-15.0808-.8573-10.772-.6537-21.5537-.8929-32.3441-.8134q-10.2269.0753-20.4374.644c-5.1913.29-10.3833.5656-15.5744.8589-1.639.0926-3.2832.1791-4.911.3559C53.875,55.6487,53.5625,60.67,52.9481,62.6185a26.825,26.825,0,0,0-1.04,5.5177c-.2447,4.2346-.4507,8.4714-.7076,12.7051-.2149,3.5415-.3644,7.0842-.468,10.6279h5.4569a2.0791,2.0791,0,0,0,.3269.0565c.6128.01,1.2252.0264,1.8374.0462.1471-4.8321.3645-9.6619.6792-14.4881.1745-2.6769.3917-5.3527.4836-8.0327a8.777,8.777,0,0,1,8.287-8.143c4.6491-.2079,9.2909-.5731,13.9388-.8143,9.0793-.4711,18.1627-.821,26.7348-.7122,11.9471-.0926,23.3516.4174,34.7488,1.139,2.5406.1609,5.0864.28,7.618.5347a8.6892,8.6892,0,0,1,7.4629,7.7983q.66,9.6686,1.0323,19.3523c.3212,8.0206.3668,16.0417.2382,24.064-.07,4.3786-.3,8.7546-.4361,13.1325-.0213.6868-.2758.9682-.98.99-6.3465.1942-12.6882.51-19.0352.7076-11.1949.3487-22.3913.509-33.59.4213-6.05-.0474-12.1-.1829-18.1492-.3307-4.5312-.1108-9.0613-.2766-13.5911-.4411-.0059.2276-.0079.4552-.0144.6828-.0815,2.8674-.1412,5.7358-.2607,8.6016q-.0291.6994-.06,1.399c4.8723.2274,9.7456.4345,14.622.57,2.6818.0743,5.3624.1987,8.0445.2546.7623.0159,1.09.2688,1.0828,1.0554-.0094.9841.09,1.9688.1129,2.9539.0331,1.388.0215,1.4053-1.33,1.38-2.2992-.044-4.598-.11-6.8969-.1705-.65-.0169-1.3289-.0011-1.6445.6672a4.1923,4.1923,0,0,0-.0861,2.4979c.0395.2508.3376.2406.5533.2574.5731.0445,1.1465.1086,1.72.1149,3.8879.0431,7.7725.2663,11.6623.2143.38-.0051.7609.0579,1.1413.0893H118.384a5.0919,5.0919,0,0,1,1.3873-.0944c3.1731-.06,6.3463-.1327,9.52-.1612.7225-.0065.9935-.3.9618-.9786-.0115-.2455.01-.4924.01-.7387-.0026-1.2273-.561-1.8223-1.8034-1.8129-1.5861.012-3.1716.0921-4.7578.1257-1.2038.0255-2.4084.0136-3.6121.0394-.5974.0128-.8352-.23-.8023-.8383.0634-1.1743.1166-2.3516.1013-3.5268-.01-.7415.2551-1.008,1.0025-1.0169,3.283-.0388,6.5658-.1127,9.8481-.1948,6.3179-.1581,12.6311-.4358,18.9421-.7668,1.694-.0888,3.3912-.1282,5.0824-.252,3.6705-.2688,12.142-3.2159,12.3456-8.7238.1182-3.1981.2517-6.3955.3759-9.5934q.1352-3.4821.2644-6.9642V94.2339C167.1628,92.0752,167.0551,89.9172,166.9941,87.7577ZM115.372,141.2289c-.0434.627-.0191,1.2591-.0139,1.8887.0039.4746-.21.7051-.6936.7036q-5.8322-.0185-11.6644-.027c-.6012-.0009-.87-.2928-.95-.8877-.3588-2.6846-.28-2.7827,2.3691-2.7642,1.45.01,2.901.0018,4.3515.0018l0,.0949c1.862,0,3.7243.02,5.5858-.01C115.0874,140.2176,115.4247,140.4656,115.372,141.2289Z" style="fill:#f2f2f2"/><rect x="40.2047" y="97.107" width="26.25" height="3.125" style="fill:#00aed6"/></svg>