<svg xmlns="http://www.w3.org/2000/svg" viewBox="0 0 200 200"><title>Icon New Maret 2021</title><circle cx="100" cy="100" r="97.5" style="fill:#00aa13"/><path d="M63.1754,151.0264,48.868,136.7191a5.404,5.404,0,0,0-.4474-.588c-2.7495-2.7634-5.3183-5.6958-7.9949-8.5267a6.7937,6.7937,0,0,1-1.9068-4.4088,14.0654,14.0654,0,0,1,3.9063-10.4981q6.7817-7.5628,13.9247-14.7946c5.6851-5.7326,11.3659-11.47,17.2778-16.9715,3.3955-3.1595,6.8056-6.3047,10.2621-9.3972,3.9624-3.5451,7.9955-7.011,11.9741-10.5382a13.3,13.3,0,0,1,7.4876-3.37,7.7236,7.7236,0,0,1,6.4,1.831c3.5044,3.2257,7.0144,6.4478,10.436,9.76q10.7374,10.3953,20.6891,21.5509a7.5236,7.5236,0,0,1,1.9547,4.5065,12.7111,12.7111,0,0,1-3.2543,9.5774c-4.23,4.9639-8.49,9.9029-12.8289,14.7744-5.3071,5.9589-10.6636,11.8693-16.267,17.5525-.3018.3061-.56.6548-.8391.9836l-8.4007,8.4007c-.3283.2783-.68.5339-.9816.8385-3.6546,3.6863-7.5148,7.1555-11.3062,10.6969a15.75,15.75,0,0,1-8.8225,4.3572,7.8164,7.8164,0,0,1-6.8328-2.0552c-2.9846-2.8655-6.13-5.56-9.072-8.4731C63.8987,151.6041,63.5266,151.3258,63.1754,151.0264Z" style="fill:#fff"/><path d="M143.5781,48.8345l10.107,10.107c.2572.3069.4955.6323.7748.9177,1.536,1.57,3.094,3.1178,4.62,4.6965a8.813,8.813,0,0,1,2.2965,3.7627,2.4529,2.4529,0,0,1-.5814,2.5609c-1.8081,1.9059-3.5681,3.858-5.325,5.8118q-3.72,4.1368-7.4,8.3089c-.9283,1.0582-1.6351,1.3068-2.9267.7379a8.4821,8.4821,0,0,1-2.7634-1.841c-2.4393-2.5448-4.8887-5.08-7.3027-7.6489-5.5732-5.93-11.4138-11.587-17.372-17.1263a10.7939,10.7939,0,0,1-2.8336-3.8543c-.5422-1.3652-.3216-1.9511.7706-2.9348Q122.188,46.437,128.7,40.5046c1.8608-1.7059,2.6845-1.8688,4.9254-.6672a10.0519,10.0519,0,0,1,1.8846,1.3364c2.4884,2.1874,4.7871,4.57,7.1506,6.8856C142.9458,48.3389,143.2713,48.5772,143.5781,48.8345Zm6.0806,21.07-.0471.0471c.5956.5956,1.2186,1.1666,1.78,1.7926.8158.9093,1.5567.843,2.3572-.0223.8577-.9272,1.7474-1.826,2.6485-2.7113a1.44,1.44,0,0,0,.074-2.3123c-1.3058-1.3409-2.6169-2.6768-3.9163-4.0239a1.2509,1.2509,0,0,0-2.05-.0529c-.9814,1.0038-1.9643,2.0063-2.9612,2.9946a1.3827,1.3827,0,0,0,.0329,2.2016C148.26,68.5233,148.9639,69.21,149.6587,69.9046Zm-9.0461-9.3754-.0327.0327c.6947.6948,1.3947,1.3844,2.0827,2.0858a1.2408,1.2408,0,0,0,2.0444.0479c.9374-.9806,1.8961-1.9412,2.8564-2.9a1.364,1.364,0,0,0-.0353-2.1918q-2.0809-2.0874-4.1566-4.18a1.2012,1.2012,0,0,0-1.9428-.0261q-1.4772,1.5-2.97,2.9846a1.237,1.237,0,0,0-.0269,1.9613C139.15,59.081,139.8848,59.8014,140.6126,60.5292Zm-4.275-14.09c-.7283-.7284-1.4519-1.4615-2.1865-2.1836a1.2,1.2,0,0,0-1.8563-.0532q-1.6012,1.4736-3.2021,2.9475a1.1315,1.1315,0,0,0-.0829,1.8286q2.2339,2.2355,4.5006,4.4379a1.1946,1.1946,0,0,0,1.8571.0009c.3373-.3246.6792-.6451,1.007-.9791C139.73,49.02,139.7991,49.8878,136.3376,46.4394Z" style="fill:#fff"/></svg>