<svg xmlns="http://www.w3.org/2000/svg" viewBox="0 0 200 200"><title>Icon New Maret 2021</title><circle cx="100" cy="100" r="93.8071" style="fill:#df1995"/><path d="M101.0227,49.2677a44.0653,44.0653,0,0,1,16.2529,2.858A46.6687,46.6687,0,0,1,131.62,60.57c1.5238,1.3036,2.8952,2.7506,4.3305,4.1384a5.0633,5.0633,0,1,1-7.3059,7.0031,41.2893,41.2893,0,0,0-7.7106-6.5493,36.9682,36.9682,0,0,0-13.9352-5.3461,36.5255,36.5255,0,0,0-18.2446,1.5113A36.742,36.742,0,0,0,76.58,68.3438c-1.7886,1.5456-3.3716,3.3275-5.1393,4.8993a4.5756,4.5756,0,0,1-5.3232.6787,4.7521,4.7521,0,0,1-2.8823-4.3127,5.371,5.371,0,0,1,1.7625-4.149A54.4452,54.4452,0,0,1,78.04,55.076,48.3935,48.3935,0,0,1,88.2353,50.93,44.43,44.43,0,0,1,101.0227,49.2677Z" style="fill:#fff"/><path d="M101.2458,67.1967A28.0726,28.0726,0,0,1,119.8213,74.17a33.3947,33.3947,0,0,1,3.9179,3.92,5.2936,5.2936,0,0,1-.052,6.8749,5.37,5.37,0,0,1-6.6788,1.4077,11.1886,11.1886,0,0,1-2.5556-2.1107,21.2948,21.2948,0,0,0-5.5837-4.2214,17.2662,17.2662,0,0,0-11.093-1.4359,18.0334,18.0334,0,0,0-9.405,5.277,16.9915,16.9915,0,0,1-3.5344,3.2413,5.492,5.492,0,0,1-8.1921-3.6809,5.3841,5.3841,0,0,1,1.5842-5.0811,44.4241,44.4241,0,0,1,6.987-6.26,28.8414,28.8414,0,0,1,8.35-3.8782A28.3911,28.3911,0,0,1,101.2458,67.1967Z" style="fill:#fff"/><path d="M100.486,105.1031a8.71,8.71,0,1,1,.066-17.4205,8.71,8.71,0,1,1-.066,17.4205Z" style="fill:#fff"/><path d="M56.7068,83.4a2.84,2.84,0,0,0-5.6809,0v31.0722h5.6809Z" style="fill:#fff"/><path d="M157.6728,121.5521V135.459c-.089,1.8484-.187,3.6964-.2645,5.5453a5.3548,5.3548,0,0,1-3.5643,4.7411c-.6114.1652-1.4136-.1037-1.8067.5251-.365.5837-.1877,1.3309-.2412,2.007-.0064.0815-.0173.1631-.0177.2447-.0035.7016-.3529,1.0044-1.0557,1.05q-2.813.1846-5.62.4524c-.6639.0624-.9071-.2035-.8584-.8292q.0759-.9778.1441-1.9562c.04-.5616-.1991-.7757-.7807-.7322-2.8244.2116-5.6492.4257-8.4771.5815-5.3311.2937-10.6625.6007-15.9974.8044q-8.8634.3387-17.7335.4952c-8.75.1582-17.4984-.0528-26.2444-.3222-2.8048-.0864-5.6079-.23-8.4113-.3581q-4.8167-.22-9.6322-.4657c-.5523-.0288-.74.1981-.71.7135.037.6256.0194,1.2563.0888,1.8776.076.6815-.1638.9512-.858.9043-1.9843-.134-3.97-.2428-5.9564-.3494a.7438.7438,0,0,1-.8159-.8077c-.0128-.5177-.021-1.0359-.0485-1.5529-.0593-1.1153-.1171-1.1707-1.2234-1.281-2.6856-.2676-4.3517-1.6192-4.9068-4.0336a15.7983,15.7983,0,0,1-.2382-2.9294,34.3066,34.3066,0,0,0-.1167-3.8341V123.5154c.0317-.3239.091-.6478.0906-.9716-.0026-1.963.0688-3.9228.17-5.8832a5.2683,5.2683,0,0,1,5.0053-4.9773c.7075-.0271,1.4133-.0954,2.12-.14q9.4617-.5985,18.9235-1.1965c7.506-.4819,15.0151-.8837,22.538-.973.3517-.0042.7027-.06,1.0541-.0924h12.598a4.7841,4.7841,0,0,0,.645.0869c4.0314.01,8.0587.1694,12.0847.3555,3.6988.1711,7.3978.3438,11.0938.5655,4.5649.274,9.1273.5909,13.69.9053,3.53.2432,7.055.593,10.5888.74,2.472.1027,4.3,2.6156,4.5031,4.6478C157.5973,118.2385,157.4529,119.9031,157.6728,121.5521Zm-62.6513,7.4134-.0916,0c0,1.2251.0133,2.45-.0043,3.6753-.0137.9558.3088,1.4306,1.25,1.4459q3.4717.0567,6.945-.0225c.951-.0209,1.321-.46,1.3277-1.4014q.0272-3.8.0126-7.6c-.0037-.92-.3531-1.3311-1.2744-1.3428-2.3145-.0294-4.6307-.0223-6.9446.0333-.9227.0222-1.2.373-1.215,1.29C95.0062,126.35,95.0215,127.658,95.0215,128.9655Zm-4.1476-.0408h.0226c0-1.2257.0061-2.4514-.0018-3.677-.0075-1.1774-.2192-1.4107-1.3739-1.4115q-3.0231-.002-6.0463.0488c-1.4011.0255-1.7539.3407-1.7832,1.7485-.05,2.396-.04,4.7935-.0278,7.19.0044.871.36,1.2883,1.2338,1.3042q3.3486.061,6.6989-.01c.9052-.0183,1.2616-.4509,1.2734-1.3533C90.8864,131.4852,90.8739,130.2049,90.8739,128.9247Zm-13.07.18H77.85c0-.6261-.01-1.2524.0029-1.8783s.0759-1.251.07-1.876c-.0081-.8309-.364-1.29-1.1538-1.2857-2.1762.0106-4.3528.0791-6.5277.1632a1.0053,1.0053,0,0,0-1.0642,1.0958c-.0313,2.4768-.089,4.9533-.1068,7.43-.0067.9276.3569,1.3405,1.2581,1.359,2.0681.0424,4.1381.0516,6.2063.0151.9237-.0163,1.25-.4114,1.2647-1.348C77.8187,131.5554,77.8042,130.33,77.8042,129.1049Zm-12.4449.0548h.02c0-1.2265-.002-2.453.0008-3.6795a.9808.9808,0,0,0-1.1034-1.1178c-2.0157.04-4.0314.0937-6.0458.1727a1.0862,1.0862,0,0,0-1.1426,1.215q-.0126,3.5158-.0328,7.0317a1.1284,1.1284,0,0,0,1.1826,1.2787c2.0159.04,4.0332.0416,6.0494.0159a1.0014,1.0014,0,0,0,1.0771-1.1555C65.3447,131.6675,65.3593,130.4135,65.3593,129.16Z" style="fill:#fff"/></svg>