<svg xmlns="http://www.w3.org/2000/svg" viewBox="0 0 200 200"><title>Icon New Maret 2021</title><circle cx="100" cy="100" r="97.5" style="fill:#ee2737"/><path d="M156.154,127.3319a9.8922,9.8922,0,0,0,.5083-2.82c.1243-3.3612.2645-6.7219.3951-10.0829q.142-3.66.2779-7.32V88.6283c-.0908-2.2687-.204-4.5369-.2681-6.8065-.187-6.6148-.5821-13.2181-1.0184-19.82a12.5063,12.5063,0,0,0-1.0121-5.29,10.3213,10.3213,0,0,0-9.2429-5.7777c-5.2861-.2408-10.5679-.5805-15.85-.901-11.3216-.6872-22.6535-.9385-33.9943-.855q-10.7487.0792-21.48.6769c-5.4561.3053-10.9131.5945-16.369.9027-1.7227.0974-3.4583.1289-5.1616.3741a9.7736,9.7736,0,0,0-7.3279,5.3193,10.6124,10.6124,0,0,0-1.0931,4.7483c-.2571,4.45-.4737,8.9035-.7437,13.3533-.6383,10.5192-.75,21.0489-.6725,31.5828.0451,6.1583.306,12.3111.5586,18.463a9.3436,9.3436,0,0,0,.3887,2.3132l111.6587.2454A.8337.8337,0,0,1,156.154,127.3319Zm-107.1833-1.67c-1.6231-.11-1.604-6.2876-1.6791-7.9364-.34-7.447-.6834-12.1569-.4432-19.6069.2962-9.1844.3559-16.2946.9533-25.4569.1835-2.8134.4118-5.6258.5083-8.4424a9.2248,9.2248,0,0,1,8.71-8.5585c4.8863-.2186,9.765-.6024,14.65-.8559,9.5425-.4952,19.0894-.8629,28.0988-.7486,12.5567-.0973,24.543.4388,36.5218,1.1972,2.67.169,5.3458.2938,8.0066.5619a9.1328,9.1328,0,0,1,7.8438,8.1963q.6932,10.1618,1.0849,20.34c.3376,8.43.3855,13.0855.25,21.517-.0738,4.6021-.3154,9.2014-.4583,13.8027-.0224.7218-.097,5.6944-1.0295,5.8443Z" style="fill:#fff"/><path d="M162.5784,139.2172c-1.34-4.0174-3.2448-6.5952-5.4-10.2347a5.5716,5.5716,0,0,0-1.0249-1.6506.8334.8334,0,0,0-.4466-.175l-111.6587-.2454-.2043,0a3.7887,3.7887,0,0,0-1.2013,1.508c-2.0162,3.4637-3.82,5.8492-5.1981,9.6107-1.18,3.22-1.4712,3.6643-1.2691,6.016a6.2494,6.2494,0,0,0,1.2089,2.9651,4.6782,4.6782,0,0,0,4.0056,2.2482c8.3123.2109,16.6224.5149,24.9313.8365,7.78.3011,15.56.5972,23.3473.652.3322.0024.664.0587.996.09h18.594c.36-.0312.72-.0893,1.08-.09,7.0068-.0109,14.0057-.32,21.0056-.5642,6.4409-.2248,12.8785-.5376,19.3178-.8079,2.6482-.1111,5.2961-.2317,7.9454-.3081a5.2506,5.2506,0,0,0,3.1306-1.2253c1.4957-1.4146,2.1152-2.1079,2.1447-4.0892C163.8969,142.8226,163.3991,141.6772,162.5784,139.2172Z" style="fill:#fff"/><path d="M66.1283,136.6358c.5856,0,1.1713-.0065,1.7566.0012,1.6454.0218,1.7112.0244,1.6735-.8668l-.0076-.171c-.0222-.4952-.3641-.6555-1.1262-.6563-1.477-.0013-2.9559-.0213-4.43-.0732-1.5742-.0554-1.8854-.0144-1.88.6964.001.1237.0105.2652.0258.4326.0383.4193.3417.5856.9778.585Z" style="fill:#ee2737"/><path d="M54.4451,136.4289c.5282,0,1.0572-.0121,1.5844.0023,1.6867.0461,1.6538.2348,1.6664-.9962l0-.0364c.0056-.51-.36-.658-1.1057-.6561-1.3063.0033-2.6128-.0191-3.9191-.033-1.38-.0145-1.759-.0084-1.8166.4445a3.5354,3.5354,0,0,0,.0341.7221c.04.378.3279.5179.8879.5182Z" style="fill:#ee2737"/><path d="M93.2649,137.03q1.506,0,3.012,0c1.1559-.0013,1.2211-.0428,1.2224-.7631,0-.0426-.0016-.0852-.0022-.1278s0-.0868-.0023-.13c-.0321-.6517-.1511-.7328-1.2354-.74q-2.6772-.0179-5.3548-.012c-1.73.0034-1.8592-.1417-1.8206.87.0045.1156.01.2425.0172.39.0135.2981.2515.43.7366.4267Z" style="fill:#ee2737"/><path d="M111.2507,135.9382c-.0117-.438-.2777-.6167-.9941-.6109-1.8656.015-3.7318.005-5.5978.004-1.6971-.001-1.9193.0139-1.8743.8151.0064.1148.0183.2457.0322.395.0356.3833.3141.5068.8908.5008,1.0859-.0112,2.1723-.0032,3.2585-.0027q1.295.0006,2.59,0c1.6065-.0013,1.7156-.0107,1.7-.881C111.2545,136.09,111.2528,136.0179,111.2507,135.9382Z" style="fill:#ee2737"/><path d="M78.1256,135.1147c-.39-.0067-.7795-.0222-1.1686-.0392-1.5762-.0684-1.6511-.07-1.6311.8249l.0034.1392c.02.7454.043.7649,1.2927.7777,1.6165.0164,3.2346.0024,4.85.04,1.6852.0389,1.9166.0293,1.847-.79-.01-.1117-.0243-.2375-.0421-.3812-.0454-.3676-.3093-.5278-.8866-.5264-1.0312.0025-2.0625.0007-3.0938.0007Z" style="fill:#ee2737"/><path d="M121.3779,136.94q1.0859,0,2.1718,0c1.9148-.0029,1.73.0347,1.8324-.9658.0038-.0373.0071-.0728.0119-.1129.0538-.4551-.2075-.6216-.9326-.6137-1.7259.0188-3.4526.0119-5.179.0153-1.734.0034-1.9173.0062-1.9049.84.0016.1076.006.2274.0112.3646.0153.4012.2724.5545.9016.547Z" style="fill:#ee2737"/><path d="M132.7273,136.8158c.6671,0,1.3344.0062,2.0013-.0012,1.8235-.02,1.8-.0236,1.9041-1.1154l0-.0016c.0407-.4281-.19-.5939-.8847-.5823-1.6115.0269-3.2241.0323-4.8363.0411-1.5471.0085-1.7813.0254-1.7834.7388,0,.1115.0045.2386.0115.3869a.3528.3528,0,0,1,.0007.0514c-.0362.3658.2133.5289.8349.5143Z" style="fill:#ee2737"/><path d="M148.0618,135.3244c-.0708-.3007-.3831-.4118-1-.3931-1.39.0419-2.7821.0463-4.1727.0775-1.3667.0306-1.6643.0425-1.7236.55a5.1586,5.1586,0,0,0-.0122.5955c.0047.4058.24.5588.8886.5269.7761-.0382,1.556-.0463,2.3349-.0674.6408,0,1.2813.0061,1.9214-.001,1.7012-.0188,1.6784-.0218,1.7784-1.0572A.6945.6945,0,0,0,148.0618,135.3244Z" style="fill:#ee2737"/><path d="M62.7052,131.4885c.5545,0,1.1092-.0065,1.6635.0012,1.558.0218,1.62.0245,1.5846-.8668l-.0072-.171c-.021-.4951-.3447-.6555-1.0664-.6562-1.3987-.0014-2.7992-.0213-4.1954-.0733-1.4907-.0554-1.7853-.0144-1.78.6964.0009.1237.01.2652.0244.4327.0363.4193.3235.5856.9259.5849Z" style="fill:#ee2737"/><path d="M88.4022,131.8826q1.4262,0,2.8522,0c1.0946-.0014,1.1563-.0428,1.1575-.7632,0-.0426-.0015-.0851-.002-.1277s0-.0869-.0022-.13c-.03-.6518-.1431-.7329-1.17-.74q-2.5351-.0177-5.0707-.0119c-1.6384.0034-1.7605-.1417-1.724.87.0042.1157.01.2426.0163.39.0128.2981.2381.43.6975.4268Z" style="fill:#ee2737"/><path d="M105.4338,130.7909c-.011-.438-.2629-.6166-.9413-.6109-1.7666.015-3.5338.0051-5.3008.004-1.6071-.0009-1.8175.0139-1.7749.8152.0061.1148.0174.2457.0305.3949.0337.3833.2975.5068.8436.5009,1.0283-.0112,2.057-.0033,3.0855-.0028q1.2264.0006,2.4527,0c1.5213-.0013,1.6246-.0106,1.61-.8809C105.4375,130.943,105.4358,130.8707,105.4338,130.7909Z" style="fill:#ee2737"/><path d="M74.066,129.9674c-.3691-.0066-.7381-.0222-1.1066-.0391-1.4925-.0684-1.5635-.07-1.5445.8248l.0032.1392c.0186.7455.0407.765,1.2241.7777,1.5308.0165,3.063.0024,4.5925.04,1.5957.039,1.8149.0293,1.7489-.79-.009-.1117-.023-.2375-.04-.3812-.043-.3676-.2929-.5277-.84-.5264-.9765.0025-1.9531.0007-2.93.0007Z" style="fill:#ee2737"/><path d="M115.0238,131.7928q1.0283,0,2.0567,0c1.8131-.0029,1.6377.0347,1.7351-.9658.0036-.0372.0068-.0727.0112-.1129.0511-.4551-.1964-.6215-.883-.6137-1.6344.0188-3.2695.012-4.9043.0153-1.642.0034-1.8156.0063-1.8039.84.0015.1076.0058.2274.0107.3645.0144.4013.2579.5545.8537.5471Z" style="fill:#ee2737"/><path d="M125.7711,131.6686c.6318,0,1.2636.0062,1.8952-.0013,1.7267-.02,1.7047-.0236,1.8031-1.1154V130.55c.0386-.4281-.18-.5939-.8377-.5824-1.526.0269-3.053.0323-4.58.0412-1.4651.0084-1.6868.0254-1.6888.7388,0,.1115.0042.2385.0108.3868a.3677.3677,0,0,1,.0007.0514c-.0342.3658.202.5289.7906.5143Z" style="fill:#ee2737"/><path d="M140.2921,130.1771c-.067-.3006-.3627-.4117-.9465-.3931-1.3159.042-2.6345.0464-3.9514.0775-1.2941.0306-1.576.0426-1.6321.55a5.45,5.45,0,0,0-.0115.5954c.0044.4059.2268.5589.8414.527.7349-.0382,1.4735-.0464,2.211-.0674.6068,0,1.2134.0061,1.82-.001,1.611-.0189,1.5893-.0219,1.684-1.0572A.73.73,0,0,0,140.2921,130.1771Z" style="fill:#ee2737"/><path d="M113.39,147.8112H82.558a1.4139,1.4139,0,0,1-1.2512-2.0725l1.9431-3.6919a1.4139,1.4139,0,0,1,1.2512-.7554h26.9458a1.4138,1.4138,0,0,1,1.2512.7554l1.9432,3.6919A1.414,1.414,0,0,1,113.39,147.8112Z" style="fill:#ee2737"/></svg>