<svg xmlns="http://www.w3.org/2000/svg" viewBox="0 0 200 200"><title>Icon New Maret 2021</title><circle cx="100" cy="100" r="97.5" style="fill:#93328e"/><path d="M96.3809,148.5554c-6.4757.0212-12.9456-.2251-19.4156-.4228-3.3112-.1012-6.6187-.3339-9.9263-.5333a5.3831,5.3831,0,0,1-3.3236-1.46c-3.2538-2.9512-6.2707-6.145-9.3823-9.2419a6.9593,6.9593,0,0,1-1.99-4.8667c-.3466-7.6318-.6588-15.2627-.8338-22.9025-.157-6.8578.0011-13.7067.1387-20.5563.1091-5.4259.4561-10.8472.7179-16.27.0913-1.8907.2134-3.7811.3793-5.6666a5.0344,5.0344,0,0,1,1.4063-3.1473q4.7115-4.73,9.5287-9.3544a6.7259,6.7259,0,0,1,4.4661-1.7894c6.7141-.3783,13.4308-.6176,20.1536-.7886q7.25-.1845,14.4946-.0693c5.5542.0869,11.1076.3076,16.6578.5509,4.1606.1823,8.3159.4892,12.4732.7468a7.1962,7.1962,0,0,1,4.888,2.197c2.7852,2.8433,5.6188,5.6391,8.421,8.4659a6.9835,6.9835,0,0,1,2.0152,4.6562c.4619,6.7074.85,13.42,1.03,20.1382.1908,7.1324.4464,14.2685.1219,21.4069-.1247,2.7436-.104,5.4919-.1906,8.2384-.1471,4.6707-.4427,9.3326-.6573,13.9989a6.56,6.56,0,0,1-1.9485,4.4957c-2.8778,2.8818-5.71,5.8092-8.5451,8.7336a6.8006,6.8006,0,0,1-4.722,2.0981c-3.7189.1942-7.438.3866-11.1548.6143C112.9228,148.334,104.6526,148.4654,96.3809,148.5554ZM92.5716,83.8628c-1.9611.2071-2.6321,1.0138-2.64,3.0094-.0191,5.117-.0125,10.2342-.0139,15.35,0,2.7787-.03,5.5578.0108,8.3359a2.6254,2.6254,0,0,0,2.6618,2.8464,2.7086,2.7086,0,0,0,2.8217-2.6091,71.33,71.33,0,0,0,.1313-7.1951c.0492-2.3909-.3368-2.2525,2.3168-2.2864,2.333-.03,4.6867.2353,6.9934-.2485,2.6095-.5473,4.9133-1.5852,6.24-4.1417a9.5451,9.5451,0,0,0,.9208-3.74c.3532-4.4322-2.1487-8.4818-6.8645-9.1485-1.2286-.1737-2.4576-.1793-3.6826-.233Zm42.3221,12.1516c0,2.53.0921,4.4622-.0245,6.3819-.1311,2.1579-.4131,4.3073-2.549,5.6041a6.5285,6.5285,0,0,1-3.5563.76c-3.69-.0055-5.6413-1.8858-5.9014-5.5654-.1452-2.052-.1118-4.1016-.146-6.1528-.06-3.5985-.1046-7.1978-.218-10.7948a2.6767,2.6767,0,0,0-3.6456-2.529c-1.1061.3819-1.6138,1.167-1.6022,2.714.0361,4.7991.114,9.5979.16,14.3969a35.5958,35.5958,0,0,0,.2285,3.9668,8.8791,8.8791,0,0,0,7.5062,8.0184,21.2821,21.2821,0,0,0,6.5085.0314,8.9391,8.9391,0,0,0,7.2088-5.32,13.208,13.208,0,0,0,1.0306-5.6406c.0122-4.61-.0942-9.22-.1787-13.8292a5.4413,5.4413,0,0,0-.684-2.8235,2.32,2.32,0,0,0-2.35-1.0841,2.0942,2.0942,0,0,0-1.8231,1.6858,6.4187,6.4187,0,0,0-.1482,1.5977C134.7624,90.4941,134.9807,93.5528,134.8937,96.0144ZM59.4,98.4158a20.4425,20.4425,0,0,0,.2323,3.6818,13.6669,13.6669,0,0,0,5.4242,9.118,12.2942,12.2942,0,0,0,6.5269,1.98c3.8234.2835,7.22-.6487,9.8827-3.5445a8.4641,8.4641,0,0,0,2.56-6.033,2.3362,2.3362,0,0,0-1.9326-2.2512,2.17,2.17,0,0,0-2.4776,1.2656c-.3776.7992-.7034,1.6227-1.0671,2.4287a6.1083,6.1083,0,0,1-2.3939,2.7485,7.2311,7.2311,0,0,1-10.9094-4.1329,18.5836,18.5836,0,0,1-.4926-7.6916,11.3927,11.3927,0,0,1,1.53-4.6409c2.5635-4.3185,9.3427-5.1023,12.1476-.1272.4031.7149.83,1.417,1.2624,2.1145a1.9591,1.9591,0,0,0,1.2516.9372c1.9732.4667,3.44-1.03,2.9979-3.148-.65-3.1147-2.7743-5.0462-5.4822-6.36a12.9045,12.9045,0,0,0-7.488-1.07,12.397,12.397,0,0,0-8.6853,5.0145A15.1345,15.1345,0,0,0,59.4,98.4158Z" style="fill:#fff"/><path d="M83.5264,40.2992c1.11.5818,1.5465,1.3,1.4558,2.1951a26.2912,26.2912,0,0,0-.0423,3.0881c.0106.6454-.4647.9249-1.5435.9375q-6.24.0732-12.4793.1933c-1.2711.0252-1.943-.2154-1.8451-1.0527.128-1.0942.11-2.1952.2723-3.287.2314-1.5532.8077-1.8477,3.4224-1.9527.3928-.0158.78-.08,1.17-.1216Z" style="fill:#fff"/><path d="M106.8154,40.2992c1.2643.4153,1.866,1.03,1.8584,1.9227-.01,1.1291.1369,2.2588.2212,3.3881.0481.6442-.4321.934-1.5264.9279q-6.41-.0354-12.82-.0315c-1.0908,0-1.5293-.3068-1.5139-.9474.0288-1.2.0238-2.4.0036-3.6-.012-.718.5429-1.24,1.4475-1.66Z" style="fill:#fff"/><path d="M117.3453,43.8055c0-.24.0039-.48-.0006-.72-.0448-2.38.5-2.6971,4.3941-2.5871,2.4442.069,4.8908.1084,7.3338.1882,2.5618.0837,3.6236.7151,3.7564,2.2236a18.9414,18.9414,0,0,0,.2841,3.1791c.1779.6879-.3682,1.0412-1.5446,1.0065-4.2616-.1258-8.5226-.2591-12.7849-.3759-.9534-.0262-1.3077-.3533-1.3278-.86-.0272-.6846-.0068-1.37-.0068-2.0551Z" style="fill:#fff"/><path d="M99.326,87.4585a18.987,18.987,0,0,1,4.4885.4464c2.1288.5471,3.0335,2.9858,2.8659,4.6676-.2817,2.8263-1.9781,3.7974-4.892,4.1584a44.7,44.7,0,0,1-5.1018.06c-.6071.0049-.8306-.2946-.8278-.8794q.0183-3.7827-.0009-7.5656c-.0042-.6553.2858-.9051.9148-.8909C97.6234,87.4739,98.4748,87.46,99.326,87.4585Z" style="fill:#fff"/><path d="M118.6823,159.4012c-1.11-.5818-1.5465-1.3-1.4558-2.1951a26.2926,26.2926,0,0,0,.0423-3.0882c-.0107-.6454.4647-.9248,1.5435-.9375q6.24-.0732,12.4793-.1932c1.2711-.0252,1.943.2153,1.8451,1.0527-.128,1.0941-.11,2.1952-.2723,3.2869-.2314,1.5532-.8077,1.8477-3.4224,1.9528-.3928.0158-.78.08-1.17.1216Z" style="fill:#fff"/><path d="M95.3933,159.4012c-1.2643-.4153-1.866-1.03-1.8584-1.9227.01-1.1291-.1369-2.2588-.2212-3.3881-.0481-.6443.4321-.934,1.5264-.9279q6.41.0353,12.82.0315c1.0908,0,1.5293.3068,1.5139.9474-.0288,1.2-.0238,2.4-.0036,3.6.012.718-.543,1.24-1.4475,1.66Z" style="fill:#fff"/><path d="M84.8634,155.8949c0,.24-.0039.48.0006.72.0447,2.38-.5,2.6971-4.3941,2.5871-2.4442-.069-4.8908-.1084-7.3338-.1882-2.5618-.0837-3.6236-.7151-3.7564-2.2236a18.9425,18.9425,0,0,0-.2841-3.1792c-.1779-.6878.3682-1.0412,1.5446-1.0064,4.2616.1258,8.5226.259,12.7849.3759.9534.0261,1.3077.3533,1.3278.86.0272.6847.0067,1.37.0067,2.0551Z" style="fill:#fff"/><path d="M168.99,83.8088a9.3929,9.3929,0,0,1-5.9387,1.5484c-2.7885-.0606-5.5917.0279-8.3873.0884-1.7526.0379-2.519-.4255-2.57-1.5037q-.296-6.2366-.7192-12.47c-.0882-1.27.5546-1.9519,2.83-1.8894,2.9734.0818,5.9634.0167,8.9308.1332,4.2218.1657,5.0306.73,5.3565,3.3394A7.1922,7.1922,0,0,0,168.84,74.22Z" style="fill:#fff"/><path d="M169.3522,107.0949c-1.108,1.2818-2.767,1.9094-5.1925,1.94-3.0666.0381-6.1323.2324-9.1979.3645-1.7489.0753-2.5432-.3926-2.5439-1.4871-.0025-4.2736-.0485-8.5468-.114-12.82-.0167-1.0907.8094-1.5421,2.5493-1.5538,3.2589-.0219,6.5186-.0778,9.7771-.1487a6.8421,6.8421,0,0,1,4.53,1.3772Z" style="fill:#fff"/><path d="M159.9939,117.7719c.6514-.01,1.303-.0164,1.9543-.0311,6.4629-.1454,7.3325.3863,7.0945,4.2842-.1494,2.4468-.2182,4.8948-.397,7.3409-.1875,2.565-1.8856,3.6534-5.98,3.85-2.8761.1381-5.7655.1008-8.6294.4186-1.8653.207-2.8333-.3241-2.7574-1.5018.2753-4.2664.5709-8.5326.8219-12.7993.0561-.9543.9391-1.3225,2.3139-1.364,1.859-.0561,3.7206-.0647,5.5811-.0937Z" style="fill:#fff"/><path d="M31.045,83.8088a9.3929,9.3929,0,0,0,5.9387,1.5484c2.7885-.0606,5.5917.0279,8.3873.0884,1.7526.0379,2.519-.4255,2.57-1.5037q.2961-6.2366.7192-12.47c.0882-1.27-.5545-1.9519-2.83-1.8894-2.9734.0818-5.9634.0167-8.9308.1332-4.2218.1657-5.0306.73-5.3565,3.3394a7.1922,7.1922,0,0,1-.3484,1.1648Z" style="fill:#fff"/><path d="M30.6824,107.0949c1.1081,1.2818,2.767,1.9094,5.1926,1.94,3.0665.0381,6.1322.2324,9.1978.3645,1.7489.0753,2.5432-.3926,2.5439-1.4871.0025-4.2736.0485-8.5468.114-12.82.0167-1.0907-.8094-1.5421-2.5493-1.5538-3.2589-.0219-6.5186-.0778-9.7771-.1487a6.8421,6.8421,0,0,0-4.53,1.3772Z" style="fill:#fff"/><path d="M40.0407,117.7719c-.6514-.01-1.303-.0164-1.9543-.0311-6.4629-.1454-7.3325.3863-7.0945,4.2842.1494,2.4468.2183,4.8948.397,7.3409.1875,2.565,1.8856,3.6534,5.98,3.85,2.8761.1381,5.7655.1008,8.63.4186,1.8653.207,2.8333-.3241,2.7573-1.5018-.2753-4.2664-.5709-8.5326-.8219-12.7993-.0561-.9543-.9391-1.3225-2.3139-1.364-1.859-.0561-3.7206-.0647-5.581-.0937Z" style="fill:#fff"/></svg>