<svg xmlns="http://www.w3.org/2000/svg" viewBox="0 0 200 200"><title>Icon New Maret 2021</title><circle cx="100" cy="100" r="93.4892" style="fill:#ee2737"/><polygon points="61.667 51.51 56.294 52.813 45.094 55.496 45.094 55.493 42.379 55.493 42.379 55.496 42.377 55.496 42.377 60.889 42.379 60.889 42.379 76.489 45.094 76.489 45.094 60.889 58.938 60.889 58.938 72.609 61.653 72.609 61.653 55.493 61.667 51.51" style="fill:#fff"/><circle cx="56.8703" cy="72.4503" r="4.7963" style="fill:#fff"/><circle cx="40.3094" cy="76.2512" r="4.7963" style="fill:#fff"/><polygon points="87.394 31.496 84.637 32.165 78.891 33.542 78.891 33.54 77.498 33.54 77.498 33.542 77.497 33.542 77.497 36.309 77.498 36.309 77.498 44.313 78.891 44.313 78.891 36.309 85.994 36.309 85.994 42.322 87.387 42.322 87.387 33.54 87.394 31.496" style="fill:#fff"/><circle cx="84.933" cy="42.2407" r="2.4609" style="fill:#fff"/><circle cx="76.4359" cy="44.1908" r="2.4609" style="fill:#fff"/><circle cx="105.5347" cy="95.8884" r="16.5132" style="fill:#fff"/><circle cx="107.6206" cy="140.8506" r="8.865" style="fill:#fff"/><path d="M142.7151,91.051c-.04-7.42-.2171-14.8413-.8458-22.2356a15.9157,15.9157,0,0,0-4.7939-10.3936,8.033,8.033,0,0,0-5.3608-2.3175c-6.9328-.3863-13.8585-.8923-20.8046-1.0009A3.8036,3.8036,0,0,1,110.3114,55h-18.1q-3.6449.1638-7.29.3281c-2.1956.1007-4.39.2209-6.5865.3049A8.2753,8.2753,0,0,0,72.0918,58.97a17.22,17.22,0,0,0-3.9555,10.1267c-.3293,5.5373-.5751,11.0776-.6233,16.6254a9.5137,9.5137,0,0,1-.1117,1.0032v26.0308c.0395.5385.1115,1.0768.1139,1.6154.039,8.6418.3673,17.2765.6837,25.9105.1973,5.3814.4315,10.7644.809,16.1354.3141,4.4693,1.8483,8.4621,5.3948,11.4438a7.8691,7.8691,0,0,0,4.9713,1.7406c8.061.33,16.1234.4084,24.19.3857,8.3374-.0235,16.6639-.3492,24.987-.8.8117-.044,1.6262-.0478,2.44-.0546a7.55,7.55,0,0,0,5.2949-2.2451,16.0342,16.0342,0,0,0,4.7783-11.0213c.4115-6.4211.71-12.8505.9778-19.28.2188-5.2467.3279-10.4979.4771-15.7474C142.8005,110.9111,142.7689,100.9806,142.7151,91.051Zm-35.0945,62.0831a12.2835,12.2835,0,1,1,12.2835-12.2835A12.2835,12.2835,0,0,1,107.6206,153.1341Zm-2.0859-34.301a22.9447,22.9447,0,1,1,22.9446-22.9447A22.9447,22.9447,0,0,1,105.5347,118.8331Z" style="fill:#fff"/></svg>